<svg width="28" height="28" xmlns="http://www.w3.org/2000/svg"><g fill="#1D1D1B" fill-rule="nonzero"><path d="M240.46.34h12.45v98.92h-12.45zM605.89 85.82h13.52v13.52h-13.52zM461.16 88.49l-.71-.18v11H450v-99h12.37c0 21.7-.09 43.5 0 65.2 0 11.21 4.71 23.49 17.79 23.66 6.58.18 11.48-2.84 14.77-8.45 3.47-6.05 4.18-12.72 4.18-19.48-.09-4.89-.45-9.69-2.32-14.32a18 18 0 00-16.63-11.21c-4.45 0-6.58 1.34-10.32 3.29v-9.6a25.92 25.92 0 0113.61-4.1c19.39 0 28.11 18.6 28.11 35.94 0 17.88-8.81 38.07-31.4 38.07-9.43 0-14.59-4.62-19-10.85v.03zM521.74 79.51c0-9.25 4-16 11.65-19.57 6.32-3 17.71-3.65 25.18-4.54v9.52c-8.54 1.24-24.73 1.42-24.73 12.81 0 9 5.07 11.92 13.43 11.92 9.16 0 21-6.23 20.91-16.55l.09-24.9c0-10.86-6.94-12.64-16.11-12.64-10.94.09-14 3.21-16.19 13.26h-10.58c-1-17.44 14.05-23.49 27.57-23.49 12.55 0 26.25 5.61 26.25 19.66v38.43c0 6.85 3.91 6.05 9.43 5.52v7.74s-2.32 2.22-7.48 2.22c-7 0-11.47-2.85-12.27-10.32-7.83 7.12-12.19 11-26.16 10.76-11.74 0-21-7.73-21-19.83h.01zM371.76 79.51c0-9.25 4-16 11.65-19.57 6.32-3 17.71-3.65 25.18-4.54v9.52c-8.54 1.24-24.73 1.42-24.73 12.81 0 9 5.07 11.92 13.43 11.92 9.16 0 21-6.23 20.91-16.55l.09-24.9c0-10.86-6.94-12.64-16.11-12.64-10.85.09-14 3.21-16.19 13.26h-10.58c-1-17.44 14-23.49 27.58-23.49 12.54 0 26.24 5.61 26.24 19.66v38.43c0 6.85 3.91 6.05 9.43 5.52v7.74s-2.32 2.22-7.48 2.22c-7 0-11.47-2.85-12.27-10.32-7.83 7.12-12.19 11-26.15 10.76-11.75 0-21-7.73-21-19.83zM162.27 79.51c0-9.25 4-16 11.65-19.57 6.32-3 17.71-3.65 25.09-4.54v9.52c-8.45 1.24-24.64 1.42-24.64 12.81 0 9 5.07 11.92 13.43 11.92 9.16 0 20.91-6.23 20.91-16.55V48.2c.08-10.86-6.85-12.64-16-12.64-10.94.09-14 3.21-16.19 13.26h-10.69c-.89-17.44 14-23.49 27.66-23.49 12.55 0 26.25 5.61 26.25 19.66v38.43c0 6.85 3.91 6.05 9.43 5.52v7.74s-2.32 2.22-7.48 2.22c-7 0-11.56-2.85-12.27-10.32-7.83 7.12-12.19 11-26.16 10.76-11.74 0-21-7.73-21-19.83h.01zM311 88.49l-.71-.18v11h-10.4v-99h12.27v65.2c0 11.21 4.8 23.49 17.79 23.66 6.58.18 11.48-2.84 14.77-8.45 3.56-6.05 4.27-12.72 4.18-19.48 0-4.89-.36-9.69-2.22-14.32A18.22 18.22 0 00330 35.74c-4.45 0-6.49 1.34-10.23 3.29v-9.6a25.68 25.68 0 0113.61-4.1c19.4 0 28 18.6 28 35.94 0 17.88-8.8 38.07-31.31 38.07-9.43 0-14.68-4.62-19-10.85H311zM270.17 25.33h12.45v74.01h-12.45zM678.84 99.34h-12.46v-74H678v10.59c.17.09.26.18.44.18.62-.8 1.16-1.69 1.69-2.49C684.8 27 690.58 22.49 699 22.49c2.22 0 3 .53 3 3v10.14h-4c-11.3.09-19.21 7.92-19.21 19.31v44.38l.05.02zM636.67 25.33h12.45v74.01h-12.45zM.34 19.12v4.63c2.1.37 4.24.71 6.3 1.12 26 5.24 47.82 13.25 65.32 24 2.19 1.38 4.34 2.77 6.39 4.2 18.74-16.41 26-33.67 26-33.67C66.14 3.92 28.33 9.72.34 19.12zM78.63 62.68c-2-1.62-4.19-3.15-6.38-4.63-2.15-1.47-4.39-2.86-6.63-4.19C43.16 40.71 17.98 34.51.44 31.3v64.77c55.41 32.25 108 3.27 108 3.27C101.38 84 90.79 72 78.63 62.68z"/></g></svg>