<svg xmlns:xlink="http://www.w3.org/1999/xlink" xmlns="http://www.w3.org/2000/svg" width="48" height="48" role="img"><g fill-rule="nonzero" fill="none"><path fill="#231F20" d="M38.654 35.177v4.43c0 .078-.005.155-.013.232 6.5.167 8.59-4.85 8.59-4.85-3.208-1.318-6.388-.656-8.577.188"></path><path fill="#FDB913" d="M38.796 35.843v3.916c0 .276-.053.548-.155.803 4.533 3.29 9.066.737 9.066.737-1.785-4.027-6.676-5.095-8.91-5.456"></path><path fill="#FFFFFF" d="M7.317 13.601v8.897h1.176v5.931H7.317v7.414h31.176V13.601z"></path><path fill="#231F20" d="M.002 29.213s5.862-6.137 6.22-15.612h13.493s.622 14.935-8.88 17.778c0 0 2.087-1.76.62-6.588 0 0-.227 6.103-7.458 7.851 0 0 3.596-3.835 3.73-7.039 0 0-2.532 3.565-7.727 3.61"></path><path fill="#231F20" d="M38.232 13.12v22.454H7.418v-6.222H6.84v10.73c.005 1.193.96 2.158 2.137 2.161h27.696c1.18-.003 2.134-.97 2.138-2.164V13.121h-.58z"></path><path fill="#FDB913" d="M38.81 13.76V8.445c-.005-1.392-1.115-2.519-2.487-2.525H8.69c-1.373.006-2.483 1.133-2.487 2.524v5.317h32.608z"></path><path fill="#231F20" d="M26.086 21.677c.356 1.675 1.899 2.808 3.576 2.625 1.677-.183 2.948-1.623 2.945-3.337 0-.216-.02-.432-.062-.644l-6.46 1.356zm.944-1.753l5.697-1.207s1.033-.3 1.948.333c-.19.345-.51.595-.885.693l-7.94 1.538h-.354l-.177-.543.355-.03-.03-.528-.686-.972-.145-.562.388-.085 1.83 1.363zm-2.165 11.918h-5.619v-.712h5.565c.229-.038 2.049-.363 3.587-1.368l.392.597c-1.773 1.158-3.817 1.467-3.9 1.48l-.025.003z"></path></g></svg>