<svg xmlns:xlink="http://www.w3.org/1999/xlink" xmlns="http://www.w3.org/2000/svg" viewBox="0 0 24 24" width="36" height="36" fill="currentColor" class="block mx-auto mb-1" data-v-5b4f9913=""><path d="M5.557 5.565c.45-.45.713-.435 1.163-.06l.105.09a.75.75 0 0 1 .112.105l.255.255 3 3.293a.667.667 0 0 0 .675.195l1.988-.555a.682.682 0 0 0 .48-.75l-.045-.165a.376.376 0 0 1 0-.09l.075-.105c.067-.075.135-.158.21-.233l.113-.105c.12-.12.247-.127.33-.052l.682.682a.667.667 0 0 0 .66.173l2.37-.675a1.013 1.013 0 0 1 .982.217l.06.06h-.052l-6.105 2.82a.676.676 0 0 0-.217 1.065l3.217 3.525a.667.667 0 0 0 .75.158l1.5-.698a.188.188 0 0 1 .248.038.173.173 0 0 1 0 .217L15 18.098l-.082.097a.165.165 0 0 1-.233.045.172.172 0 0 1-.068-.195l.075-.135.69-1.5a.668.668 0 0 0-.157-.75l-3.518-3.217a.674.674 0 0 0-1.072.217l-2.85 6.09-.045-.052h-.038a1.012 1.012 0 0 1-.202-.96l.682-2.385a.667.667 0 0 0-.172-.66l-.698-.705a.187.187 0 0 1 0-.263l.12-.127a2.36 2.36 0 0 1 .24-.218l.105-.075h.18a.674.674 0 0 0 .863-.45l.57-2.01a.683.683 0 0 0-.195-.682l-3.293-3-.187-.18a1.92 1.92 0 0 1-.465-.63c-.09-.24 0-.45.3-.788h.007Zm10.373 13.5 3.082-3.075a1.5 1.5 0 0 0 .24-1.965l-.06-.09a1.5 1.5 0 0 0-1.875-.435l-1.035.473-2.25-2.475 5.25-2.438h.06a1.328 1.328 0 0 0 .33-2.205l-.044-.105-.128-.09a2.318 2.318 0 0 0-2.198-.45l-1.95.54-.42-.427a1.56 1.56 0 0 0-2.182.082 3.761 3.761 0 0 0-.75.863v.075a.668.668 0 0 0-.06.24v.165l-1.012.277-2.806-3.052-.18-.188a4.337 4.337 0 0 0-.36-.285 2.002 2.002 0 0 0-3 .15 1.995 1.995 0 0 0-.6 2.25l.045.105c.23.474.563.889.975 1.215l3 2.753-.3 1.035h-.165a.646.646 0 0 0-.307.097 3.54 3.54 0 0 0-.75.585l-.24.248a1.553 1.553 0 0 0 .06 2.047l.435.443-.563 1.987a2.325 2.325 0 0 0 .533 2.25l.052.053A1.327 1.327 0 0 0 9 19.365v-.067l2.43-5.25 2.475 2.25-.473 1.035.068-.083a1.516 1.516 0 1 0 2.453 1.778" fill-rule="evenodd" fill="#0077DB"></path></svg>